<?xml version="1.0" encoding="UTF-8"?>
<!DOCTYPE svg PUBLIC "-//W3C//DTD SVG 1.1//EN" "http://www.w3.org/Graphics/SVG/1.1/DTD/svg11.dtd">
<svg version="1.1" xmlns="http://www.w3.org/2000/svg" xmlns:xlink="http://www.w3.org/1999/xlink" x="0" y="0" width="595.4" height="145.5" viewBox="0, 0, 595.4, 145.5">
  <g id="Layer_1">
    <path d="M9,143 L38.4,143 L38.4,30 L47.4,30 L47.4,2.7 L-0,2.7 L-0,30 L9,30 z" fill="#000000"/>
    <path d="M56.4,38.9 L85.7,38.9 L85.7,143 L56.4,143 z" fill="#000000"/>
    <path d="M128.6,0 C116.8,0 108.5,2.7 103,7.9 C97.7,13 94.7,22.1 94.7,33.7 L94.7,112.7 C94.7,124 97.5,132.4 103,137.6 C108.6,142.9 117.4,145.5 129.2,145.5 C141,145.5 148.4,142.8 153.9,137.6 C159.4,132.4 162.4,124 162.4,112.7 L162.4,59.1 L128.6,59.1 L128.6,86.5 L133.1,86.5 L133.1,118.9 L124.1,118.9 L124.1,30 L133.1,30 L133.1,48.9 L162.4,48.9 L162.4,32.9 C162.4,21.6 159.6,13.2 154.1,8 C148.6,2.7 140.5,0 128.6,0 z" fill="#000000"/>
    <path d="M56.4,2.7 L85.7,2.7 L85.7,30 L56.4,30 z" fill="#000000"/>
    <path d="M368,39 L368,115.7 L358.9,115.7 L358.9,39 L295.4,39 L295.4,143 L322.7,143 L322.7,66.3 L331.7,66.3 L331.7,143 L395.2,143 L395.2,66.2 L404.3,66.2 L404.3,143 L431.5,143 L431.5,39 z" fill="#000000"/>
    <path d="M255.9,2.7 L218.8,2.7 L218.8,143 L248.1,143 L248.1,86.4 L257.1,86.4 L257.1,143 L286.4,143 L286.4,105.8 C286.5,87.9 278.9,74.4 266.1,72.6 L265.1,72.5 L265.1,69.5 L266.1,69.4 C272.1,68.7 278.2,66.5 281.4,61.7 C284.6,56.9 286.4,53.1 286.4,44 L286.4,32.6 C286.4,23.1 283.9,15.7 278.9,10.8 C273.8,5.6 265.3,3 255.9,2.7 z M257.1,59.1 L248.1,59.1 L248.1,30 L257.1,30 L257.1,59.1 z" fill="#000000"/>
    <path d="M583.4,71.2 L583.4,71 L594.7,2.7 L565.5,2.7 L557,59.1 L553.5,59.1 L553.5,2.7 L524.2,2.7 L524.2,143 L553.5,143 L553.5,86.4 L557,86.4 L566.1,143 L595.4,143 z" fill="#000000"/>
    <path d="M295.4,2.7 L431.5,2.7 L431.5,30 L295.4,30 z" fill="#000000"/>
    <path d="M200.7,86.4 L209.7,86.4 L209.7,59.1 L200.7,59.1 L200.7,29.8 L209.7,29.8 L209.7,2.7 L171.4,2.7 L171.4,143 L209.7,143 L209.7,115.7 L200.7,115.7 z" fill="#000000"/>
    <path d="M506.1,2.7 L478.9,2.7 L478.9,143 L515.1,143 L515.1,115.7 L506.1,115.7 z" fill="#000000"/>
    <path d="M440.5,38.9 L469.8,38.9 L469.8,143 L440.5,143 z" fill="#000000"/>
    <path d="M440.5,2.7 L469.8,2.7 L469.8,30 L440.5,30 z" fill="#000000"/>
  </g>
</svg>
